<?xml version="1.0" encoding="utf-8"?>
<!-- Generator: Adobe Illustrator 16.0.0, SVG Export Plug-In . SVG Version: 6.00 Build 0)  -->
<!DOCTYPE svg PUBLIC "-//W3C//DTD SVG 1.1//EN" "http://www.w3.org/Graphics/SVG/1.1/DTD/svg11.dtd">
<svg version="1.1" id="Layer_1" xmlns="http://www.w3.org/2000/svg" xmlns:xlink="http://www.w3.org/1999/xlink" x="0px" y="0px"
	 width="300px" height="300px" viewBox="0 0 300 300" enable-background="new 0 0 300 300" xml:space="preserve">
<pattern  width="100" height="100" patternUnits="userSpaceOnUse" id="New_Pattern_2" viewBox="100.177 -200.177 100 100" overflow="visible">
	<g>
		<polygon fill="none" points="100.177,-200.177 200.177,-200.177 200.177,-100.177 100.177,-100.177 		"/>
		<g>
			
				<line fill="#FFFFFF" stroke="#F07162" stroke-width="0.5" stroke-miterlimit="10" x1="200.177" y1="-100.177" x2="300.177" y2="-0.177"/>
			
				<line fill="#FFFFFF" stroke="#F07162" stroke-width="0.5" stroke-miterlimit="10" x1="200.177" y1="-105.177" x2="300.177" y2="-5.177"/>
			
				<line fill="#FFFFFF" stroke="#F07162" stroke-width="0.5" stroke-miterlimit="10" x1="200.177" y1="-110.177" x2="300.177" y2="-10.177"/>
			
				<line fill="#FFFFFF" stroke="#F07162" stroke-width="0.5" stroke-miterlimit="10" x1="200.177" y1="-115.177" x2="300.177" y2="-15.177"/>
			
				<line fill="#FFFFFF" stroke="#F07162" stroke-width="0.5" stroke-miterlimit="10" x1="200.177" y1="-120.177" x2="300.177" y2="-20.177"/>
			
				<line fill="#FFFFFF" stroke="#F07162" stroke-width="0.5" stroke-miterlimit="10" x1="200.177" y1="-125.177" x2="300.177" y2="-25.177"/>
			
				<line fill="#FFFFFF" stroke="#F07162" stroke-width="0.5" stroke-miterlimit="10" x1="200.177" y1="-130.177" x2="300.177" y2="-30.177"/>
			
				<line fill="#FFFFFF" stroke="#F07162" stroke-width="0.5" stroke-miterlimit="10" x1="200.177" y1="-135.177" x2="300.177" y2="-35.177"/>
			
				<line fill="#FFFFFF" stroke="#F07162" stroke-width="0.5" stroke-miterlimit="10" x1="200.177" y1="-140.177" x2="300.177" y2="-40.177"/>
			
				<line fill="#FFFFFF" stroke="#F07162" stroke-width="0.5" stroke-miterlimit="10" x1="200.177" y1="-145.177" x2="300.177" y2="-45.177"/>
		</g>
		<g>
			
				<line fill="#FFFFFF" stroke="#F07162" stroke-width="0.5" stroke-miterlimit="10" x1="100.177" y1="-100.177" x2="200.177" y2="-0.177"/>
			
				<line fill="#FFFFFF" stroke="#F07162" stroke-width="0.5" stroke-miterlimit="10" x1="100.177" y1="-105.177" x2="200.177" y2="-5.177"/>
			
				<line fill="#FFFFFF" stroke="#F07162" stroke-width="0.5" stroke-miterlimit="10" x1="100.177" y1="-110.177" x2="200.177" y2="-10.177"/>
			
				<line fill="#FFFFFF" stroke="#F07162" stroke-width="0.5" stroke-miterlimit="10" x1="100.177" y1="-115.177" x2="200.177" y2="-15.177"/>
			
				<line fill="#FFFFFF" stroke="#F07162" stroke-width="0.5" stroke-miterlimit="10" x1="100.177" y1="-120.177" x2="200.177" y2="-20.177"/>
			
				<line fill="#FFFFFF" stroke="#F07162" stroke-width="0.5" stroke-miterlimit="10" x1="100.177" y1="-125.177" x2="200.177" y2="-25.177"/>
			
				<line fill="#FFFFFF" stroke="#F07162" stroke-width="0.5" stroke-miterlimit="10" x1="100.177" y1="-130.177" x2="200.177" y2="-30.177"/>
			
				<line fill="#FFFFFF" stroke="#F07162" stroke-width="0.5" stroke-miterlimit="10" x1="100.177" y1="-135.177" x2="200.177" y2="-35.177"/>
			
				<line fill="#FFFFFF" stroke="#F07162" stroke-width="0.5" stroke-miterlimit="10" x1="100.177" y1="-140.177" x2="200.177" y2="-40.177"/>
			
				<line fill="#FFFFFF" stroke="#F07162" stroke-width="0.5" stroke-miterlimit="10" x1="100.177" y1="-145.177" x2="200.177" y2="-45.177"/>
		</g>
		<g>
			
				<line fill="#FFFFFF" stroke="#F07162" stroke-width="0.5" stroke-miterlimit="10" x1="0.177" y1="-100.177" x2="100.177" y2="-0.177"/>
			
				<line fill="#FFFFFF" stroke="#F07162" stroke-width="0.5" stroke-miterlimit="10" x1="0.177" y1="-105.177" x2="100.177" y2="-5.177"/>
			
				<line fill="#FFFFFF" stroke="#F07162" stroke-width="0.5" stroke-miterlimit="10" x1="0.177" y1="-110.177" x2="100.177" y2="-10.177"/>
			
				<line fill="#FFFFFF" stroke="#F07162" stroke-width="0.5" stroke-miterlimit="10" x1="0.177" y1="-115.177" x2="100.177" y2="-15.177"/>
			
				<line fill="#FFFFFF" stroke="#F07162" stroke-width="0.5" stroke-miterlimit="10" x1="0.177" y1="-120.177" x2="100.177" y2="-20.177"/>
			
				<line fill="#FFFFFF" stroke="#F07162" stroke-width="0.5" stroke-miterlimit="10" x1="0.177" y1="-125.177" x2="100.177" y2="-25.177"/>
			
				<line fill="#FFFFFF" stroke="#F07162" stroke-width="0.5" stroke-miterlimit="10" x1="0.177" y1="-130.177" x2="100.177" y2="-30.177"/>
			
				<line fill="#FFFFFF" stroke="#F07162" stroke-width="0.5" stroke-miterlimit="10" x1="0.177" y1="-135.177" x2="100.177" y2="-35.177"/>
			
				<line fill="#FFFFFF" stroke="#F07162" stroke-width="0.5" stroke-miterlimit="10" x1="0.177" y1="-140.177" x2="100.177" y2="-40.177"/>
			
				<line fill="#FFFFFF" stroke="#F07162" stroke-width="0.5" stroke-miterlimit="10" x1="0.177" y1="-145.177" x2="100.177" y2="-45.177"/>
		</g>
		<g>
			
				<line fill="#FFFFFF" stroke="#F07162" stroke-width="0.5" stroke-miterlimit="10" x1="200.177" y1="-200.177" x2="300.177" y2="-100.177"/>
			
				<line fill="#FFFFFF" stroke="#F07162" stroke-width="0.5" stroke-miterlimit="10" x1="200.177" y1="-205.177" x2="300.177" y2="-105.177"/>
			
				<line fill="#FFFFFF" stroke="#F07162" stroke-width="0.5" stroke-miterlimit="10" x1="200.177" y1="-210.177" x2="300.177" y2="-110.177"/>
			
				<line fill="#FFFFFF" stroke="#F07162" stroke-width="0.5" stroke-miterlimit="10" x1="200.177" y1="-215.177" x2="300.177" y2="-115.177"/>
			
				<line fill="#FFFFFF" stroke="#F07162" stroke-width="0.5" stroke-miterlimit="10" x1="200.177" y1="-220.177" x2="300.177" y2="-120.177"/>
			
				<line fill="#FFFFFF" stroke="#F07162" stroke-width="0.5" stroke-miterlimit="10" x1="200.177" y1="-225.177" x2="300.177" y2="-125.177"/>
			
				<line fill="#FFFFFF" stroke="#F07162" stroke-width="0.5" stroke-miterlimit="10" x1="200.177" y1="-230.177" x2="300.177" y2="-130.177"/>
			
				<line fill="#FFFFFF" stroke="#F07162" stroke-width="0.5" stroke-miterlimit="10" x1="200.177" y1="-235.177" x2="300.177" y2="-135.177"/>
			
				<line fill="#FFFFFF" stroke="#F07162" stroke-width="0.5" stroke-miterlimit="10" x1="200.177" y1="-240.177" x2="300.177" y2="-140.177"/>
			
				<line fill="#FFFFFF" stroke="#F07162" stroke-width="0.5" stroke-miterlimit="10" x1="200.177" y1="-245.177" x2="300.177" y2="-145.177"/>
		</g>
		<g>
			
				<line fill="#FFFFFF" stroke="#F07162" stroke-width="0.5" stroke-miterlimit="10" x1="100.177" y1="-200.177" x2="200.177" y2="-100.177"/>
			
				<line fill="#FFFFFF" stroke="#F07162" stroke-width="0.5" stroke-miterlimit="10" x1="100.177" y1="-205.177" x2="200.177" y2="-105.177"/>
			
				<line fill="#FFFFFF" stroke="#F07162" stroke-width="0.5" stroke-miterlimit="10" x1="100.177" y1="-210.177" x2="200.177" y2="-110.177"/>
			
				<line fill="#FFFFFF" stroke="#F07162" stroke-width="0.5" stroke-miterlimit="10" x1="100.177" y1="-215.177" x2="200.177" y2="-115.177"/>
			
				<line fill="#FFFFFF" stroke="#F07162" stroke-width="0.5" stroke-miterlimit="10" x1="100.177" y1="-220.177" x2="200.177" y2="-120.177"/>
			
				<line fill="#FFFFFF" stroke="#F07162" stroke-width="0.5" stroke-miterlimit="10" x1="100.177" y1="-225.177" x2="200.177" y2="-125.177"/>
			
				<line fill="#FFFFFF" stroke="#F07162" stroke-width="0.5" stroke-miterlimit="10" x1="100.177" y1="-230.177" x2="200.177" y2="-130.177"/>
			
				<line fill="#FFFFFF" stroke="#F07162" stroke-width="0.5" stroke-miterlimit="10" x1="100.177" y1="-235.177" x2="200.177" y2="-135.177"/>
			
				<line fill="#FFFFFF" stroke="#F07162" stroke-width="0.5" stroke-miterlimit="10" x1="100.177" y1="-240.177" x2="200.177" y2="-140.177"/>
			
				<line fill="#FFFFFF" stroke="#F07162" stroke-width="0.5" stroke-miterlimit="10" x1="100.177" y1="-245.177" x2="200.177" y2="-145.177"/>
		</g>
		<g>
			
				<line fill="#FFFFFF" stroke="#F07162" stroke-width="0.5" stroke-miterlimit="10" x1="0.177" y1="-200.177" x2="100.177" y2="-100.177"/>
			
				<line fill="#FFFFFF" stroke="#F07162" stroke-width="0.5" stroke-miterlimit="10" x1="0.177" y1="-205.177" x2="100.177" y2="-105.177"/>
			
				<line fill="#FFFFFF" stroke="#F07162" stroke-width="0.5" stroke-miterlimit="10" x1="0.177" y1="-210.177" x2="100.177" y2="-110.177"/>
			
				<line fill="#FFFFFF" stroke="#F07162" stroke-width="0.5" stroke-miterlimit="10" x1="0.177" y1="-215.177" x2="100.177" y2="-115.177"/>
			
				<line fill="#FFFFFF" stroke="#F07162" stroke-width="0.5" stroke-miterlimit="10" x1="0.177" y1="-220.177" x2="100.177" y2="-120.177"/>
			
				<line fill="#FFFFFF" stroke="#F07162" stroke-width="0.5" stroke-miterlimit="10" x1="0.177" y1="-225.177" x2="100.177" y2="-125.177"/>
			
				<line fill="#FFFFFF" stroke="#F07162" stroke-width="0.5" stroke-miterlimit="10" x1="0.177" y1="-230.177" x2="100.177" y2="-130.177"/>
			
				<line fill="#FFFFFF" stroke="#F07162" stroke-width="0.5" stroke-miterlimit="10" x1="0.177" y1="-235.177" x2="100.177" y2="-135.177"/>
			
				<line fill="#FFFFFF" stroke="#F07162" stroke-width="0.5" stroke-miterlimit="10" x1="0.177" y1="-240.177" x2="100.177" y2="-140.177"/>
			
				<line fill="#FFFFFF" stroke="#F07162" stroke-width="0.5" stroke-miterlimit="10" x1="0.177" y1="-245.177" x2="100.177" y2="-145.177"/>
		</g>
		<g>
			
				<line fill="#FFFFFF" stroke="#F07162" stroke-width="0.5" stroke-miterlimit="10" x1="200.177" y1="-300.177" x2="300.177" y2="-200.177"/>
		</g>
		<g>
			
				<line fill="#FFFFFF" stroke="#F07162" stroke-width="0.5" stroke-miterlimit="10" x1="100.177" y1="-300.177" x2="200.177" y2="-200.177"/>
		</g>
		<g>
			
				<line fill="#FFFFFF" stroke="#F07162" stroke-width="0.5" stroke-miterlimit="10" x1="0.177" y1="-300.177" x2="100.177" y2="-200.177"/>
		</g>
	</g>
</pattern>
<rect fill="#0D5573" width="300" height="300"/>
<rect opacity="0.5" fill="url(#New_Pattern_2)" width="300" height="300"/>
</svg>
